<svg height="512pt" viewBox="0 -30 512.001 512" width="512pt" xmlns="http://www.w3.org/2000/svg"><path d="m256 451.175781c-2.820312 0-5.640625-.792969-8.109375-2.382812l-241-154.925781c-4.296875-2.761719-6.890625-7.515626-6.890625-12.621094 0-5.101563 2.59375-9.855469 6.890625-12.617188l241-154.929687c4.9375-3.175781 11.28125-3.175781 16.222656 0l241 154.929687c4.292969 2.761719 6.886719 7.515625 6.886719 12.617188 0 5.105468-2.59375 9.859375-6.886719 12.621094l-241 154.925781c-2.472656 1.589843-5.292969 2.382812-8.113281 2.382812zm0 0" fill="#0051bd"/><path d="m.152344 279.160156c-.0976565.6875-.152344 1.382813-.152344 2.085938 0 .707031.0546875 1.402344.152344 2.089844zm0 0" fill="#00347b"/><path d="m505.109375 268.628906-241-154.925781c-2.488281-1.601563-5.332031-2.394531-8.171875-2.382813v339.855469h.0625c2.820312 0 5.640625-.792969 8.109375-2.382812l241-154.925781c4.292969-2.761719 6.890625-7.515626 6.890625-12.617188 0-5.105469-2.59375-9.859375-6.890625-12.621094zm0 0" fill="#00347b"/><path d="m256 339.859375c-2.820312 0-5.640625-.796875-8.109375-2.382813l-241-154.929687c-4.296875-2.761719-6.890625-7.515625-6.890625-12.617187 0-5.105469 2.59375-9.859376 6.890625-12.621094l241-154.925782c4.9375-3.175781 11.28125-3.175781 16.222656 0l241 154.925782c4.292969 2.761718 6.886719 7.515625 6.886719 12.621094 0 5.101562-2.59375 9.855468-6.886719 12.617187l-241 154.929687c-2.472656 1.585938-5.292969 2.382813-8.113281 2.382813zm0 0" fill="#ffe277"/><g fill="#ffcd00"><path d="m.152344 167.839844c-.0976565.6875-.152344 1.382812-.152344 2.089844 0 .703124.0546875 1.402343.152344 2.085937zm0 0"/><path d="m505.109375 157.308594-241-154.925782c-2.488281-1.601562-5.332031-2.3906245-8.171875-2.37890575v339.85156275h.0625c2.820312 0 5.640625-.792969 8.109375-2.382813l241-154.925781c4.292969-2.761719 6.890625-7.515625 6.890625-12.621094 0-5.101562-2.59375-9.855469-6.890625-12.617187zm0 0"/></g></svg>