<svg height="512.001pt" viewBox="0 0 512.001 512.001" width="512.001pt" xmlns="http://www.w3.org/2000/svg"><path d="m256 451.175781c-2.820312 0-5.640625-.792969-8.109375-2.378906l-241-154.929687c-4.296875-2.761719-6.890625-7.515626-6.890625-12.617188 0-5.105469 2.59375-9.859375 6.890625-12.617188l241-154.929687c4.9375-3.175781 11.28125-3.175781 16.222656 0l241 154.929687c4.292969 2.757813 6.886719 7.511719 6.886719 12.617188 0 5.101562-2.59375 9.855469-6.886719 12.617188l-241 154.929687c-2.472656 1.585937-5.292969 2.378906-8.113281 2.378906zm0 0" fill="#0051bd"/><path d="m505.109375 268.632812-241-154.929687c-2.46875-1.589844-5.289063-2.382813-8.109375-2.382813v339.855469c2.820312 0 5.640625-.792969 8.109375-2.382812l241-154.925781c4.292969-2.761719 6.890625-7.515626 6.890625-12.621094 0-5.101563-2.597656-9.855469-6.890625-12.613282zm0 0" fill="#00347b"/><path d="m256 339.859375c-2.820312 0-5.640625-.796875-8.109375-2.382813l-241-154.929687c-4.296875-2.761719-6.890625-7.515625-6.890625-12.617187 0-5.105469 2.59375-9.859376 6.890625-12.617188l241-154.929688c4.9375-3.175781 11.28125-3.175781 16.222656 0l241 154.929688c4.292969 2.757812 6.886719 7.511719 6.886719 12.617188 0 5.101562-2.59375 9.855468-6.886719 12.617187l-241 154.929687c-2.472656 1.585938-5.292969 2.382813-8.113281 2.382813zm0 0" fill="#ffe277"/><path d="m407 512c-57.898438 0-105-47.101562-105-105 0-57.894531 47.101562-105 105-105s105 47.105469 105 105c0 57.898438-47.101562 105-105 105zm0 0" fill="#00eccf"/><path d="m407 302v210c57.898438 0 105-47.101562 105-105 0-57.894531-47.101562-105-105-105zm0 0" fill="#00cab1"/><path d="m437 392h-15v-15c0-8.28125-6.714844-15-15-15s-15 6.71875-15 15v15h-15c-8.285156 0-15 6.71875-15 15 0 8.285156 6.714844 15 15 15h15v15c0 8.285156 6.714844 15 15 15s15-6.714844 15-15v-15h15c8.285156 0 15-6.714844 15-15 0-8.28125-6.714844-15-15-15zm0 0" fill="#f5f0eb"/><path d="m505.109375 157.3125-241-154.929688c-2.46875-1.585937-5.289063-2.382812-8.109375-2.382812v339.859375c2.820312 0 5.640625-.796875 8.109375-2.382813l241-154.929687c4.292969-2.761719 6.890625-7.515625 6.890625-12.617187 0-5.105469-2.597656-9.859376-6.890625-12.617188zm0 0" fill="#ffcd00"/><path d="m437 392h-15v-15c0-8.28125-6.714844-15-15-15v90c8.285156 0 15-6.714844 15-15v-15h15c8.285156 0 15-6.714844 15-15 0-8.28125-6.714844-15-15-15zm0 0" fill="#e0d2cd"/></svg>