<svg height="512" width="512" xmlns="http://www.w3.org/2000/svg" style=""><rect id="backgroundrect" width="100%" height="100%" x="0" y="0" fill="none" stroke="none"/><g class="currentLayer" style=""><title>Layer 1</title><path d="m500.800781 261.601562c0 138.289063-112.109375 250.398438-250.402343 250.398438-138.289063 0-250.398438-112.109375-250.398438-250.398438 0-138.292968 112.109375-250.402343 250.398438-250.402343 138.292968 0 250.402343 112.109375 250.402343 250.402343zm0 0" fill="#1a1aeb" id="svg_1" class="selected" fill-opacity="1"/><path d="m399.78842198848724,-0.8196721076965332 h-243.86328125 l-37.96875,49.5859375 l-46.0546875,60.15234375 v326.60546875 c45.48046875,46.66796875 109.0078125,75.65625 179.31640625,75.65625 c68.1171875,0 129.8671875,-27.2109375 175.01171875,-71.33984375 v-414.21875 c0,-14.601561546325684 -11.83984375,-26.44140625 -26.44140625,-26.44140625 zm0,0 " fill="#fdd33a" id="svg_3" class=""/><path d="m154.375 100.480469v-13.597657c-3.484375 10.574219-13.496094 18.210938-25.308594 18.210938h-54.433594l-3.550781 4.644531v326.605469c17.171875 17.621094 36.910157 32.71875 58.621094 44.683594v-354.167969c13.777344-.914063 24.671875-12.371094 24.671875-26.378906zm0 0" fill="#f9bd3a" id="svg_4"/><path d="m155.105469 0-84.023438 109.738281h57.988281c14.707032 0 26.628907-11.839843 26.628907-26.445312zm0 0" fill="#ffe6a9" id="svg_5"/><g fill="#1a1aeb" id="svg_6" class="" fill-opacity="1"><path d="m277.484375 272.84375c0 14.394531-11.667969 26.0625-26.0625 26.0625s-26.0625-11.667969-26.0625-26.0625 11.667969-26.0625 26.0625-26.0625 26.0625 11.667969 26.0625 26.0625zm0 0" id="svg_7" fill="#1a1aeb" fill-opacity="1"/><path d="m357.714844 262.621094h-24.160156c-4.621094-37.316406-34.15625-67-71.402344-71.84375v-23.714844c0-5.644531-4.578125-10.222656-10.21875-10.222656-5.648438 0-10.222656 4.578125-10.222656 10.222656v23.582031c-37.726563 4.433594-67.761719 34.320313-72.421876 71.976563h-23.136718c-5.644532 0-10.222656 4.578125-10.222656 10.222656s4.578124 10.21875 10.222656 10.21875h23.136718c4.660157 37.660156 34.695313 67.546875 72.421876 71.976562v23.585938c0 5.640625 4.578124 10.21875 10.222656 10.21875 5.644531 0 10.21875-4.578125 10.21875-10.21875v-23.714844c37.25-4.847656 66.78125-34.53125 71.402344-71.847656h24.160156c5.644531 0 10.21875-4.574219 10.21875-10.21875s-4.574219-10.222656-10.21875-10.222656zm-106.292969 72.566406c-34.378906 0-62.34375-27.96875-62.34375-62.34375 0-34.378906 27.964844-62.34375 62.34375-62.34375s62.34375 27.964844 62.34375 62.34375c0 34.375-27.96875 62.34375-62.34375 62.34375zm0 0" id="svg_8" fill="#1a1aeb" fill-opacity="1"/></g><rect fill="#eb1a1a" style="color: rgb(0, 0, 0);" stroke-dashoffset="" fill-rule="nonzero" x="258.26959228515625" y="49.65573847293854" width="232.87796020507812" height="59.8852424621582" class="" fill-opacity="1" id="svg_11"/><path fill="#eb1a1a" fill-opacity="1" stroke="none" stroke-opacity="1" style="color: rgb(0, 0, 0);" stroke-width="1" stroke-dasharray="none" stroke-linejoin="miter" stroke-linecap="butt" stroke-dashoffset="" fill-rule="nonzero" opacity="1" marker-start="" marker-mid="" marker-end="" d="M152.38967943191528,151.54415893554688 L233.90695238113403,8.88888168334961 L315.4242558479309,151.54415893554688 z" class="" transform="rotate(-89.5908, 233.908, 80.2166)" id="svg_2"/></g></svg>