/* XPM */
static char * C:\Users\GRAFFJC\AppData\Roaming\FreeCAD\Mod\freecad_transportation_wb\icons\new_alignment_xpm[] = {
"64 64 213 2",
"  	c None",
". 	c #000000",
"+ 	c #090909",
"@ 	c #373836",
"# 	c #333432",
"$ 	c #040404",
"% 	c #4B4C4A",
"& 	c #E4E5E3",
"* 	c #D8D9D5",
"= 	c #BABDB6",
"- 	c #9EA19B",
"; 	c #161615",
"> 	c #EFF0EF",
", 	c #FFFFFF",
"' 	c #C3C6C0",
") 	c #7E807B",
"! 	c #999A98",
"~ 	c #FBFBFA",
"{ 	c #BEC0BA",
"] 	c #A8ABA5",
"^ 	c #181918",
"/ 	c #F8F8F7",
"( 	c #D9DBD7",
"_ 	c #92948F",
": 	c #B9BAB8",
"< 	c #F6F6F6",
"[ 	c #BCBFB8",
"} 	c #3E3F3D",
"| 	c #373736",
"1 	c #FDFDFD",
"2 	c #D1D3CE",
"3 	c #90938D",
"4 	c #010101",
"5 	c #D4D4D2",
"6 	c #F0F1EF",
"7 	c #B9BCB5",
"8 	c #272726",
"9 	c #5B5C5A",
"0 	c #CACCC7",
"a 	c #767874",
"b 	c #030303",
"c 	c #E8E9E7",
"d 	c #E8E9E6",
"e 	c #B3B6B0",
"f 	c #919291",
"g 	c #5D5F5B",
"h 	c #1C1C1C",
"i 	c #F7F7F7",
"j 	c #DDDFDB",
"k 	c #A7AAA3",
"l 	c #080808",
"m 	c #BFC0BE",
"n 	c #F7F8F7",
"o 	c #BDC0B9",
"p 	c #434442",
"q 	c #454544",
"r 	c #D2D4CF",
"s 	c #8F918C",
"t 	c #E0E0DE",
"u 	c #EFF0EE",
"v 	c #B8BBB4",
"w 	c #232422",
"x 	c #888987",
"y 	c #FEFEFE",
"z 	c #C8CAC5",
"A 	c #6C6E6A",
"B 	c #282827",
"C 	c #F8F8F8",
"D 	c #E3E4E1",
"E 	c #ADB0A9",
"F 	c #0E0E0E",
"G 	c #D5D5D4",
"H 	c #BEC1BB",
"I 	c #4A4B48",
"J 	c #80817F",
"K 	c #CED0CB",
"L 	c #93958F",
"M 	c #222221",
"N 	c #E5E6E4",
"O 	c #B5B8B1",
"P 	c #20211F",
"Q 	c #D4D4D3",
"R 	c #F8F9F8",
"S 	c #BFC1BB",
"T 	c #585A56",
"U 	c #9B9D9A",
"V 	c #D0D2CD",
"W 	c #969993",
"X 	c #595959",
"Y 	c #F3F3F2",
"Z 	c #595A57",
"` 	c #2C2C2C",
" .	c #F1F1F0",
"..	c #FAFAFA",
"+.	c #C4C7C1",
"@.	c #90928D",
"#.	c #424241",
"$.	c #F4F4F4",
"%.	c #CACDC7",
"&.	c #AAADA6",
"*.	c #141413",
"=.	c #020202",
"-.	c #919190",
";.	c #FCFCFC",
">.	c #B7BAB3",
",.	c #313230",
"'.	c #151515",
").	c #868786",
"!.	c #EDEDEC",
"~.	c #FBFCFB",
"{.	c #CCCEC9",
"].	c #494A47",
"^.	c #2E2E2E",
"/.	c #646463",
"(.	c #8D8D8C",
"_.	c #AAAAA9",
":.	c #B0B0AE",
"<.	c #BABBB9",
"[.	c #BCBDBB",
"}.	c #BDBEBC",
"|.	c #CACAC8",
"1.	c #EBEBEA",
"2.	c #F2F3F2",
"3.	c #C6C8C2",
"4.	c #313131",
"5.	c #B8B8B7",
"6.	c #FBFBFB",
"7.	c #DCDDDA",
"8.	c #0F0F0F",
"9.	c #B6B7B5",
"0.	c #D8DAD6",
"a.	c #B4B7B0",
"b.	c #474946",
"c.	c #2A2B2A",
"d.	c #EBECEB",
"e.	c #E6E7E5",
"f.	c #DFE0DD",
"g.	c #DBDDD9",
"h.	c #DADCD8",
"i.	c #D6D8D3",
"j.	c #D3D5D0",
"k.	c #9A9C97",
"l.	c #2D2D2C",
"m.	c #EDEEEC",
"n.	c #CDCFCA",
"o.	c #BBBEB7",
"p.	c #A8AAA4",
"q.	c #4E4F4C",
"r.	c #141414",
"s.	c #E9E9E8",
"t.	c #A9ACA6",
"u.	c #7D7F7A",
"v.	c #3C3D3B",
"w.	c #050505",
"x.	c #C5C6C4",
"y.	c #CFD1CC",
"z.	c #757773",
"A.	c #5E605C",
"B.	c #4F504D",
"C.	c #4A4C49",
"D.	c #484947",
"E.	c #2C2C2B",
"F.	c #6F6F6E",
"G.	c #7B7D79",
"H.	c #1B1B1A",
"I.	c #090A09",
"J.	c #ECECEB",
"K.	c #ECEDEB",
"L.	c #555754",
"M.	c #919290",
"N.	c #C2C5BF",
"O.	c #676965",
"P.	c #131413",
"Q.	c #979994",
"R.	c #A7A9A6",
"S.	c #FAFBFA",
"T.	c #292A28",
"U.	c #131313",
"V.	c #F5F5F4",
"W.	c #949592",
"X.	c #F9FAF9",
"Y.	c #BCBFB9",
"Z.	c #1F1F1E",
"`.	c #ECEDEC",
" +	c #DCDEDA",
".+	c #757772",
"++	c #727371",
"@+	c #C0C3BD",
"#+	c #DDDEDC",
"$+	c #E3E4E2",
"%+	c #898B86",
"&+	c #3D3E3C",
"*+	c #C5C7C1",
"=+	c #B8B9B8",
"-+	c #A0A29C",
";+	c #0C0C0C",
">+	c #858684",
",+	c #B6B9B2",
"'+	c #111110",
")+	c #DCDCDB",
"!+	c #DDDEDB",
"~+	c #7D7F7B",
"{+	c #DFE0DE",
"]+	c #FDFDFC",
"^+	c #C1C4BD",
"/+	c #353533",
"(+	c #70726E",
"_+	c #D9DAD6",
":+	c #C9CBC6",
"<+	c #838580",
"[+	c #A3A59F",
"}+	c #222322",
"|+	c #1A1A19",
"                                                                                                                                ",
"                                                                                                                                ",
"                                                                                                            . . . .             ",
"                                                                                                        . . . . . . . .         ",
"                                                                                                      . . . . . . . . . .       ",
"                                                                                                    . . . . + @ # $ . . . .     ",
"                                                                                                    . . . % & * = - ; . . .     ",
"                                                                                                  . . . + > , , ' = ) . . .     ",
"                                                                                                . . . . ! , , ~ { = ] . . . .   ",
"                                                                                                . . . ^ / , , ( = = _ . . . .   ",
"                                                                                              . . . . : , , < [ = = } . . .     ",
"                                                                                              . . . | 1 , , 2 = = 3 4 . . .     ",
"                                                                                            . . . . 5 , , 6 = = 7 8 . . .       ",
"                                                                                            . . . 9 , , , 0 = = a . . . .       ",
"                                                                                          . . . b c , , d = = e ; . . .         ",
"                                                                                        . . . . f , , 1 ' = = g . . . .         ",
"                                                                                        . . . h i , , j = = k l . . .           ",
"                                                                                      . . . . m , , n o = = p . . . .           ",
"                                                                                      . . . q 1 , , r = = s 4 . . .             ",
"                                                                                    . . . 4 t , , u = = v w . . .               ",
"                                                                                  . . . . x , , y z = = A . . . .               ",
"                                                                                  . . . B C , , D = = E F . . .                 ",
"                                                                                . . . 4 G , , / H = = I . . . .                 ",
"                                                                              . . . . J , , , K = = L 4 . . .                   ",
"                                                                              . . . M < , , N = = O P . . .                     ",
"                                                                            . . . 4 Q , , R S = = T . . . .                     ",
"                                                                          . . . . U , , , V = = W $ . . .                       ",
"                                                                        . . . . X 1 , , & = = O P . . . .                       ",
"                                                                      . . . . | i , , Y o = = Z . . . .                         ",
"                                                                  . . . . . `  ., , ..+.= = @.b . . .                           ",
"                                          . . . . . . . . . . . . . . . . #.$., , 1 %.= = &.*.. . . .                           ",
"                                    . . . . . . . . . . . . . . . . . =.-.;., , 1 V = = >.,.. . . .                             ",
"                                  . . . . . . . . . . . . . . . . '.).!., , , ~.{.= = = ].. . . .                               ",
"                              . . . . . . . ^./.(._.:.<.[.}.|.Q 1.y , , , , 2.3.= = = g . . . .                                 ",
"                            . . . . . 4.5.Y , , , , , , , , , , , , , , 6.7.[ = = 7 Z . . . .                                   ",
"                          . . . . 8.9.y , , , , , , , , , , , , , y  .0.S = = = a.b.. . . . .                                   ",
"                        . . . . c.d., , , , 6.u e.f.f.g.h.h.i.j.0 o = = = = = k.M . . . . .                                     ",
"                      . . . . l.2., , , m.n.o.= = = = = = = = = = = = = = p.q.$ . . . . .                                       ",
"                      . . . r.s., , y i.= = = = = = = = = = = = = = t.u.v.w.. . . . .                                           ",
"                    . . . . x., , y y.= = = 7 W z.A.B.C.C.D.} } E.; . . . . . . . .                                             ",
"                    . . . F.y , , 0.= = = G.H.. . . . . . . . . . . . . . . . .                                                 ",
"                  . . . I.J., , K.= = = L.. . . . . . . . . . . . . . . . .                                                     ",
"                . . . . M., , 1 N.= = O.. . . . . . . . . . . . . . .                                                           ",
"                . . . P.2., , f.= = Q.$ . . . .                                                                                 ",
"              . . . . R., , S.S = 7 T.. . . .                                                                                   ",
"              . . . U.V., , ( = = ) . . . .                                                                                     ",
"              . . . W., , X.Y.= v Z.. . .                                                                                       ",
"            . . . w.`., ,  += = .+. . . .                                                                                       ",
"            . . . ++, , 1 @+= = M . . .                                                                                         ",
"          . . . . #+, , $+= = %+. . . .                                                                                         ",
"          . . . &+y , , *+= = @ . . .                                                                                           ",
"          . . . =+, , K.= = -+4 . . .                                                                                           ",
"        . . . ;+i , , V = = L.. . .                                                                                             ",
"        . . . >+, , R o.= ,+'+. . .                                                                                             ",
"        . . . )+, , !+= = ~+. . . .                                                                                             ",
"        . . . {+, ]+^+= = /+. . .                                                                                               ",
"        . . . (+_+:+= = - 4 . . .                                                                                               ",
"        . . . l <+= = [+}+. . .                                                                                                 ",
"        . . . . . |+}+$ . . . .                                                                                                 ",
"          . . . . . . . . . .                                                                                                   ",
"            . . . . . . . .                                                                                                     ",
"                . . . .                                                                                                         ",
"                                                                                                                                ",
"                                                                                                                                "};
